#!OML:ASF F:\VICON\USERDATA\INSTALL\rory3\rory3.ASF
:FULLY-SPECIFIED
:DEGREES
1023
root 3.15174 17.8481 -1.03798 16.0042 24.3558 2.10861
lowerback 7.93951 0.569171 -3.6845
upperback 3.18769 0.505426 0.0454501
thorax -1.18324 0.238539 2.072
lowerneck -17.6451 0.97299 -11.58
upperneck 31.2123 7.00399 -4.16815
head 13.4297 1.19403 1.48441
rclavicle -5.78463e-014 3.27995e-015
rhumerus -28.011 12.0452 -87.5768
rradius 40.6451
rwrist 20.7453
rhand -14.9869 6.16216
rfingers 7.12502
rthumb 11.1774 -23.5201
lclavicle -5.78463e-014 3.27995e-015
lhumerus -23.7321 -5.52012 84.4558
lradius 43.2969
lwrist -1.0993
lhand -9.48341 26.1971
lfingers 7.12502
lthumb 16.4811 55.5171
rfemur -21.596 3.05316 9.04793
rtibia 36.548
rfoot -21.1626 -10.2037
rtoes 2.943
lfemur -26.264 -0.255149 -18.9621
ltibia 26.2023
lfoot -11.4275 -1.37981
ltoes -17.2837
1024
root 3.20231 17.8471 -1.0248 15.9911 24.54 2.19881
lowerback 7.83045 0.601323 -3.81946
upperback 3.10085 0.539604 0.00241509
thorax -1.21532 0.256499 2.10068
lowerneck -17.4509 1.04375 -11.4815
upperneck 31.1541 7.09277 -4.32263
head 13.3721 1.23415 1.41844
rclavicle -1.40143e-014 1.95803e-014
rhumerus -27.76 12.1169 -87.3144
rradius 40.7273
rwrist 21.1271
rhand -15.0944 5.39404
rfingers 7.12502
rthumb 11.0737 -24.2938
lclavicle -1.40143e-014 1.95803e-014
lhumerus -23.622 -4.77168 83.7909
lradius 43.0358
lwrist -1.70753
lhand -10.0741 26.6339
lfingers 7.12502
lthumb 15.9123 56.0002
rfemur -22.1506 2.7723 9.31524
rtibia 37.7274
rfoot -21.0629 -10.1062
rtoes 2.50734
lfemur -26.1251 -0.0841608 -19.2479
ltibia 26.2137
lfoot -11.5824 -1.77351
ltoes -16.7628
1025
root 3.25519 17.8476 -1.01087 16.0075 24.7113 2.29808
lowerback 7.66049 0.647037 -3.89976
upperback 3.01249 0.597903 -0.0777459
thorax -1.21623 0.286431 2.05866
lowerneck -17.5114 1.1026 -11.1617
upperneck 31.3525 7.20235 -4.56832
head 13.4905 1.27161 1.29077
rclavicle -2.58917e-014 6.06293e-015
rhumerus -27.5371 11.9605 -87.0595
rradius 40.7887
rwrist 21.4123
rhand -15.678 4.98166
rfingers 7.12502
rthumb 10.5108 -24.7355
lclavicle -2.58917e-014 6.06293e-015
lhumerus -23.546 -4.10463 83.1077
lradius 42.7858
lwrist -2.26086
lhand -10.488 26.9665
lfingers 7.12502
lthumb 15.5137 56.3641
rfemur -22.7423 2.37347 9.55907
rtibia 38.8957
rfoot -20.8838 -9.79465
rtoes 2.23705
lfemur -25.9754 -0.138871 -19.4979
ltibia 26.2145
lfoot -11.7162 -1.95347
ltoes -16.4376
1026
root 3.30597 17.8463 -0.995066 16.0163 24.9605 2.36238
lowerback 7.54257 0.678339 -3.87101
upperback 2.86223 0.640372 -0.184622
thorax -1.30772 0.311499 1.92867
lowerneck -17.627 1.11392 -10.8367
upperneck 31.7275 7.24717 -4.73175
head 13.6961 1.27955 1.18558
rclavicle 6.58226e-014 -1.59028e-014
rhumerus -27.3795 11.6774 -86.8373
rradius 40.7742
rwrist 21.573
rhand -16.3542 4.6149
rfingers 7.12502
rthumb 9.85844 -25.1343
lclavicle 6.58226e-014 -1.59028e-014
lhumerus -23.5894 -3.47683 82.4247
lradius 42.5832
lwrist -2.83672
lhand -10.8763 26.8495
lfingers 7.12502
lthumb 15.1397 56.2757
rfemur -23.3304 2.03093 9.85329
rtibia 40.0319
rfoot -20.8048 -9.58055
rtoes 2.24304
lfemur -25.8211 -0.116694 -19.7045
ltibia 26.1544
lfoot -11.793 -2.28619
ltoes -16.0711
1027
root 3.35177 17.8448 -0.979384 15.9849 25.2309 2.49117
lowerback 7.54276 0.689885 -3.92416
upperback 2.72971 0.645849 -0.301816
thorax -1.44432 0.318501 1.83635
lowerneck -17.5553 1.10032 -10.612
upperneck 31.8897 7.20119 -4.82042
head 13.7638 1.26668 1.10641
rclavicle -3.30976e-014 3.47873e-015
rhumerus -27.1411 11.2236 -86.6506
rradius 40.6659
rwrist 21.6622
rhand -17.026 4.20838
rfingers 7.12502
rthumb 9.21026 -25.5705
lclavicle -3.30976e-014 3.47873e-015
lhumerus -23.6007 -2.90929 81.709
lradius 42.3888
lwrist -3.18998
lhand -11.0833 26.9642
lfingers 7.12502
lthumb 14.9402 56.4053
rfemur -23.8802 1.71672 10.093
rtibia 41.0961
rfoot -20.7376 -9.39055
rtoes 2.19392
lfemur -25.6336 0.0696496 -19.9771
ltibia 26.0596
lfoot -11.8175 -2.92002
ltoes -15.1195
1028
root 3.39826 17.8461 -0.959126 15.8761 25.5306 2.73255
lowerback 7.6522 0.663625 -4.09074
upperback 2.62901 0.588756 -0.412351
thorax -1.60567 0.294355 1.81939
lowerneck -17.597 1.17094 -10.6933
upperneck 32.0432 7.3379 -4.74456
head 13.8298 1.31631 1.17354
rclavicle 5.31749e-015 -3.48867e-014
rhumerus -26.9425 10.7917 -86.4776
rradius 40.6385
rwrist 21.3983
rhand -18.1453 3.75265
rfingers 7.12502
rthumb 8.13014 -26.0709
lclavicle 5.31749e-015 -3.48867e-014
lhumerus -23.5886 -2.27631 80.9702
lradius 42.0959
lwrist -3.47441
lhand -11.0498 27.4537
lfingers 7.12502
lthumb 14.9725 56.8924
rfemur -24.2592 1.33241 10.2301
rtibia 42.0842
rfoot -20.592 -9.22324
rtoes 1.46583
lfemur -25.2741 0.106095 -20.3195
ltibia 25.96
lfoot -11.8958 -3.44597
ltoes -14.3151
1029
root 3.44513 17.8465 -0.932647 15.6958 25.7966 2.9219
lowerback 7.67618 0.644334 -4.28759
upperback 2.5958 0.545652 -0.465558
thorax -1.65139 0.274172 1.87845
lowerneck -17.6441 1.21564 -10.7402
upperneck 32.1311 7.44244 -4.74138
head 13.8753 1.34999 1.20094
rclavicle 3.91606e-014 4.84041e-014
rhumerus -26.8131 10.28 -86.2378
rradius 40.7622
rwrist 21.124
rhand -19.2101 3.423
rfingers 7.12502
rthumb 7.10234 -26.4378
lclavicle 3.91606e-014 4.84041e-014
lhumerus -23.6626 -1.50431 80.3133
lradius 41.8952
lwrist -3.69371
lhand -11.1338 27.8578
lfingers 7.12502
lthumb 14.8916 57.3026
rfemur -24.5353 1.02436 10.4043
rtibia 42.984
rfoot -20.5305 -8.90943
rtoes 0.98789
lfemur -24.8088 0.0695226 -20.5953
ltibia 25.8898
lfoot -12.0563 -3.75222
ltoes -14.1097
1030
root 3.48855 17.8458 -0.905906 15.4586 26.1008 2.90734
lowerback 7.67854 0.630888 -4.30451
upperback 2.55939 0.52518 -0.47616
thorax -1.68907 0.265256 1.87867
lowerneck -17.6302 1.26911 -10.7589
upperneck 32.1599 7.5291 -4.73034
head 13.8812 1.38629 1.22257
rclavicle -2.05618e-014 8.94531e-016
rhumerus -26.7821 9.47422 -85.9994
rradius 40.9856
rwrist 21.0782
rhand -19.9286 3.15296
rfingers 7.12502
rthumb 6.40878 -26.7301
lclavicle -2.05618e-014 8.94531e-016
lhumerus -23.5275 -1.01173 79.6711
lradius 41.4925
lwrist -3.40223
lhand -11.6393 28.1866
lfingers 7.12502
lthumb 14.4046 57.6668
rfemur -24.8544 0.800974 10.7845
rtibia 43.8085
rfoot -20.6272 -8.64115
rtoes 1.22453
lfemur -24.4121 0.0837005 -20.6622
ltibia 25.8666
lfoot -12.1934 -4.027
ltoes -13.7193
1031
root 3.53154 17.8429 -0.882232 15.2531 26.3967 2.87464
lowerback 7.73359 0.615205 -4.24177
upperback 2.47196 0.502845 -0.498591
thorax -1.80807 0.257662 1.82158
lowerneck -17.5835 1.34782 -10.7053
upperneck 32.2168 7.63381 -4.73734
head 13.8944 1.43578 1.22773
rclavicle 2.2413e-014 2.53823e-014
rhumerus -26.7188 8.64319 -85.773
rradius 41.1126
rwrist 20.8367
rhand -20.9195 2.95721
rfingers 7.12502
rthumb 5.45205 -26.9527
lclavicle 2.2413e-014 2.53823e-014
lhumerus -23.1668 -0.592623 79.0297
lradius 40.9277
lwrist -3.12516
lhand -12.0138 28.8725
lfingers 7.12502
lthumb 14.0437 58.378
rfemur -25.2361 0.593186 11.1598
rtibia 44.558
rfoot -20.6207 -8.45645
rtoes 1.56982
lfemur -24.1059 0.228918 -20.7444
ltibia 25.9066
lfoot -12.3158 -4.43689
ltoes -13.3474
1032
root 3.57807 17.836 -0.865485 15.1481 26.615 2.98672
lowerback 7.78004 0.632282 -4.20334
upperback 2.40955 0.522509 -0.566484
thorax -1.89881 0.270128 1.72743
lowerneck -17.5339 1.34902 -10.7184
upperneck 32.1868 7.64101 -4.76077
head 13.8717 1.43899 1.22095
rclavicle -3.41785e-014 4.5795e-014
rhumerus -26.5759 7.86945 -85.4807
rradius 41.2762
rwrist 20.2905
rhand -22.4137 2.77977
rfingers 7.12502
rthumb 4.00932 -27.1623
lclavicle -3.41785e-014 4.5795e-014
lhumerus -22.8393 -0.0565467 78.481
lradius 40.4794
lwrist -2.87432
lhand -12.525 29.4225
lfingers 7.12502
lthumb 13.551 58.9616
rfemur -25.6811 0.289305 11.3405
rtibia 45.2479
rfoot -20.3718 -8.19432
rtoes 1.63922
lfemur -23.8733 0.396216 -21.0165
ltibia 25.9845
lfoot -12.5102 -4.83949
ltoes -13.2
1033
root 3.62464 17.8297 -0.846845 15.0947 26.8435 3.21315
lowerback 7.76771 0.628364 -4.23759
upperback 2.3846 0.512283 -0.67932
thorax -1.91642 0.266051 1.631
lowerneck -17.5365 1.32813 -10.6928
upperneck 32.1749 7.61332 -4.78487
head 13.8704 1.42843 1.20299
rclavicle -2.91437e-014 3.07557e-014
rhumerus -26.4578 7.01505 -85.2627
rradius 41.5027
rwrist 19.731
rhand -23.9926 2.68612
rfingers 7.12502
rthumb 2.48448 -27.2792
lclavicle -2.91437e-014 3.07557e-014
lhumerus -22.6518 0.640157 77.9009
lradius 40.0265
lwrist -2.55981
lhand -12.8451 29.2634
lfingers 7.12502
lthumb 13.2425 58.8228
rfemur -26.1136 -0.0421959 11.398
rtibia 45.8677
rfoot -20.0844 -7.98137
rtoes 1.67663
lfemur -23.6219 0.410251 -21.3704
ltibia 26.0726
lfoot -12.7667 -5.08607
ltoes -12.9273
1034
root 3.66623 17.8235 -0.821651 14.9592 27.077 3.34972
lowerback 7.76508 0.61187 -4.2991
upperback 2.35158 0.483246 -0.756
thorax -1.94714 0.252892 1.58886
lowerneck -17.5182 1.34403 -10.5393
upperneck 32.1684 7.62692 -4.90154
head 13.8751 1.43829 1.1337
rclavicle -2.6297e-014 8.23093e-015
rhumerus -26.4089 6.08947 -85.1028
rradius 41.7598
rwrist 19.1478
rhand -24.8518 2.94967
rfingers 7.12502
rthumb 1.65473 -27.0237
lclavicle -2.6297e-014 8.23093e-015
lhumerus -22.691 1.07025 77.3242
lradius 39.6639
lwrist -1.97146
lhand -13.1073 28.8584
lfingers 7.12502
lthumb 12.9897 58.434
rfemur -26.5039 -0.294093 11.5523
rtibia 46.4023
rfoot -19.9621 -7.77524
rtoes 1.46373
lfemur -23.3123 0.320268 -21.5687
ltibia 26.1656
lfoot -12.9474 -5.25525
ltoes -12.3547
1035
root 3.70606 17.8171 -0.7966 14.7778 27.2843 3.39134
lowerback 7.80975 0.601664 -4.30708
upperback 2.35996 0.467094 -0.763401
thorax -1.96226 0.245187 1.58694
lowerneck -17.7565 1.33978 -10.6998
upperneck 32.2412 7.68173 -4.7808
head 13.946 1.4474 1.22174
rclavicle -6.8781e-014 1.03741e-015
rhumerus -26.135 5.3655 -84.8519
rradius 41.9337
rwrist 18.3382
rhand -25.3133 3.24026
rfingers 7.12502
rthumb 1.20894 -26.7361
lclavicle -6.8781e-014 1.03741e-015
lhumerus -22.8385 1.46971 76.8862
lradius 39.5283
lwrist -1.45771
lhand -13.4303 28.7631
lfingers 7.12502
lthumb 12.6784 58.3583
rfemur -26.9142 -0.498812 11.7676
rtibia 46.8418
rfoot -19.9572 -7.63353
rtoes 0.999301
lfemur -23.0248 0.254649 -21.6723
ltibia 26.2878
lfoot -13.0564 -5.37852
ltoes -12.0998
1036
root 3.7485 17.8121 -0.770987 14.5512 27.4448 3.34668
lowerback 7.80896 0.546118 -4.26795
upperback 2.47957 0.402757 -0.692123
thorax -1.83448 0.209349 1.64519
lowerneck -18.2906 1.37471 -11.0057
upperneck 32.2699 7.885 -4.66496
head 14.0551 1.49503 1.36133
rclavicle -6.40257e-014 -2.44132e-015
rhumerus -25.6388 5.02341 -84.6089
rradius 42.1101
rwrist 17.4783
rhand -26.1366 2.9698
rfingers 7.12502
rthumb 0.413785 -27.0095
lclavicle -6.40257e-014 -2.44132e-015
lhumerus -22.8974 2.256 76.528
lradius 39.4833
lwrist -1.30947
lhand -13.6164 29.1529
lfingers 7.12502
lthumb 12.4989 58.7591
rfemur -27.3188 -0.595289 12.021
rtibia 47.1961
rfoot -19.9515 -7.59486
rtoes 0.748516
lfemur -22.7327 0.246833 -21.7027
ltibia 26.429
lfoot -13.1594 -5.5255
ltoes -11.6057
1037
root 3.78814 17.8068 -0.74535 14.3049 27.5731 3.24788
lowerback 7.80239 0.512108 -4.22052
upperback 2.57196 0.366735 -0.616339
thorax -1.73335 0.18835 1.70058
lowerneck -18.7455 1.4198 -11.1061
upperneck 32.3385 8.08276 -4.69564
head 14.1807 1.54398 1.40777
rclavicle -3.18366e-015 -1.88348e-014
rhumerus -25.3613 4.56423 -84.4649
rradius 42.4439
rwrist 16.6993
rhand -27.0677 2.39319
rfingers 7.12502
rthumb -0.485506 -27.586
lclavicle -3.18366e-015 -1.88348e-014
lhumerus -22.8268 2.87529 76.2297
lradius 39.2595
lwrist -0.870098
lhand -14.1479 29.5853
lfingers 7.12502
lthumb 11.9865 59.2221
rfemur -27.7407 -0.609871 12.3172
rtibia 47.477
rfoot -20.0071 -7.57073
rtoes 0.237934
lfemur -22.4626 0.253144 -21.6798
ltibia 26.5908
lfoot -13.3356 -5.6043
ltoes -11.5448
